<?xml version="1.0" encoding="UTF-8"?><svg id="Layer_2" xmlns="http://www.w3.org/2000/svg" xmlns:xlink="http://www.w3.org/1999/xlink" viewBox="0 0 153.6 134.78"><defs><style>.cls-1{fill:url(#linear-gradient);}.cls-2{fill:#fff;}</style><linearGradient id="linear-gradient" x1="0" y1="67.39" x2="153.6" y2="67.39" gradientTransform="matrix(1, 0, 0, 1, 0, 0)" gradientUnits="userSpaceOnUse"><stop offset=".06" stop-color="#58b557"/><stop offset=".35" stop-color="#41a04e"/><stop offset=".94" stop-color="#066d39"/><stop offset="1" stop-color="#006837"/></linearGradient></defs><g id="Layer_1-2"><g><path class="cls-1" d="M112.41,0H41.18c-1.99,0-3.82,1.06-4.81,2.78L.74,64.61c-.99,1.72-.99,3.83,0,5.55l35.63,61.83c.99,1.72,2.83,2.78,4.81,2.78H112.41c1.99,0,3.82-1.06,4.81-2.78l35.63-61.83c.99-1.72,.99-3.83,0-5.55L117.23,2.78c-.99-1.72-2.83-2.78-4.81-2.78Z"/><g><path class="cls-2" d="M114.46,90.48c-.98,5.44-4.54,8.76-9.34,8.85-5.04,.09-8.59-3.06-9.81-8.78h-31.27c-.31,2.72-1.45,4.99-3.59,6.71-1.7,1.36-3.64,2.06-5.83,2.08-4.95,.04-8.18-2.85-9.74-8.86-.32,0-.67,0-1.03,0-2.24,0-4.48,.03-6.72-.01-2.48-.05-4.34-1.92-4.44-4.4-.01-.27,0-.53,0-.8,0-14.88,.04-29.75-.03-44.62-.01-2.84,1.79-5.22,5.22-5.2,15.71,.09,31.42,.09,47.13,0,3.49-.02,5.39,2.36,5.26,5.26-.13,2.9-.03,5.81-.03,8.86h1.11c5.28,0,10.56,.02,15.84-.01,1.63-.01,2.88,.58,3.93,1.82,2.75,3.23,5.52,6.45,8.33,9.63,1.03,1.17,1.5,2.45,1.49,4.01-.03,7.25-.01,14.51-.02,21.76,0,2.58-1.14,3.71-3.74,3.71-.9,0-1.79,0-2.73,0Zm.02-1.5c.06,.03,.12,.08,.17,.08,.9,.01,1.8,.03,2.7,.03,1.67,0,2.19-.53,2.19-2.23,0-5.05,0-10.09,0-15.14,0-.32-.03-.64-.05-1.06h-1.25c-6.15,0-12.3,0-18.44,0-1.92,0-2.68-.75-2.69-2.66,0-3.31,0-6.62,0-9.92,0-2.05,.73-2.77,2.78-2.77,3.84,0,7.69,0,11.53,0,.35,0,.7,0,1.29,0-.98-1.14-1.81-2.06-2.57-3.02-.79-.99-1.77-1.39-3.05-1.38-5.28,.04-10.56,.02-15.84,.02-.32,0-.64,.03-1.01,.05v1.29c0,10.63,0,21.25,0,31.88,0,1.7,.16,3.42-1.2,4.86h6.31c.66-5.47,4.86-8.53,8.93-8.74,5.2-.27,8.69,2.73,10.2,8.72Zm-69.52,.09c.3-2.53,1.29-4.71,3.2-6.4,1.91-1.69,4.15-2.51,6.7-2.43,2.03,.06,3.86,.73,5.46,1.98,2.23,1.72,3.4,4.05,3.74,6.83,.33,.02,.6,.04,.86,.04,6.85,0,13.7,0,20.55,0,2.16,0,3.38-1.26,3.39-3.44,0-2.77,0-5.55,0-8.32,0-.29-.04-.58-.06-.85H34.09c0,3.34-.04,6.61,.02,9.87,.03,1.38,1.29,2.66,2.66,2.7,2.7,.07,5.41,.02,8.19,.02Zm-10.85-14.1h26.6v-18.26h-26.6v18.26Zm54.68,.03v-18.28h-26.57v18.28h26.57Zm-54.72-19.77h26.65v-18.29c-.14-.04-.24-.09-.33-.09-7.79,0-15.57-.03-23.36,.01-1.69,0-2.92,1.36-2.95,3.06-.03,1.77,0,3.54,0,5.31,0,3.31,0,6.61,0,10Zm28.14,0h26.65v-1.17c0-4.48,0-8.96,0-13.44,0-2.66-1.11-3.79-3.76-3.79-7.25,0-14.51,0-21.76,0h-1.13v18.4Zm57.33,14.07c0-1.66,.09-3.24-.04-4.8-.06-.78-.37-1.65-.85-2.26-1.37-1.76-2.87-3.43-4.37-5.09-.25-.28-.72-.49-1.09-.49-4.47-.03-8.95-.01-13.42-.03-.93,0-1.32,.34-1.31,1.3,.03,3.34,.01,6.68,.01,10.02,0,1.19,.2,1.39,1.4,1.39,6.28,0,12.56,0,18.83,0,.23,0,.46-.02,.83-.04Zm-14.61,12.31c-4.56-.02-8.25,3.64-8.26,8.18,0,4.49,3.65,8.15,8.16,8.19,4.53,.04,8.26-3.66,8.26-8.19,0-4.5-3.65-8.16-8.16-8.18Zm-50.43,0c-4.52,0-8.17,3.62-8.2,8.12-.02,4.55,3.64,8.24,8.19,8.24,4.54,0,8.25-3.72,8.22-8.24-.04-4.5-3.7-8.13-8.21-8.13Z"/><path class="cls-2" d="M108.94,89.82c-.01,2.26-1.83,4.07-4.08,4.05-2.25-.01-4.04-1.84-4.03-4.1,0-2.25,1.85-4.08,4.08-4.06,2.24,.02,4.04,1.85,4.03,4.11Zm-1.35,0c.02-1.47-1.16-2.69-2.62-2.74-1.5-.05-2.77,1.17-2.78,2.68-.02,1.47,1.16,2.69,2.63,2.73,1.52,.04,2.76-1.15,2.78-2.67Z"/><path class="cls-2" d="M58.56,89.76c.02,2.25-1.78,4.09-4.02,4.12-2.24,.02-4.07-1.79-4.1-4.04-.02-2.24,1.78-4.1,4.02-4.12,2.22-.03,4.08,1.81,4.1,4.05Zm-1.37,.08c.02-1.53-1.18-2.76-2.69-2.76-1.45,0-2.68,1.22-2.71,2.67-.03,1.48,1.22,2.75,2.72,2.74,1.49,0,2.66-1.16,2.68-2.65Z"/></g></g></g></svg>