<?xml version="1.0" encoding="UTF-8"?><svg id="Layer_2" xmlns="http://www.w3.org/2000/svg" viewBox="0 0 150.05 131.7"><defs><style>.cls-1{fill:#fff;}.cls-2{fill:#58b557;}</style></defs><g id="Layer_1-2"><path class="cls-2" d="M109.76,0H40.3c-1.99,0-3.82,1.06-4.81,2.78L.74,63.08c-.99,1.72-.99,3.83,0,5.55l34.74,60.3c.99,1.72,2.83,2.78,4.81,2.78H109.76c1.99,0,3.82-1.06,4.81-2.78l34.74-60.3c.99-1.72,.99-3.83,0-5.55L114.57,2.78c-.99-1.72-2.83-2.78-4.81-2.78Z"/><path class="cls-1" d="M105.44,48.96c4.42,0,8.64,0,12.87,0,2.18,0,2.89,.71,2.89,2.87,0,13.49,0,26.98,0,40.48,0,2.06-.79,2.85-2.84,2.85-12.36,0-24.72,0-37.08,0-2.1,0-2.88-.79-2.89-2.92,0-1.97,0-3.93,0-5.99h-10.04v2.13c2.19,0,4.37,.05,6.54-.02,1.06-.04,1.33,.37,1.28,1.34-.04,.72-.33,.94-1.01,.94-5.36-.01-10.72-.02-16.08,0-.93,0-.94-.53-.95-1.21-.01-.72,.2-1.07,.99-1.06,2.25,.03,4.51,.01,6.84,.01v-2.22h-1.28c-10.9,0-21.81,0-32.71,0-2.43,0-3.14-.7-3.14-3.11,0-14.48,0-28.95,0-43.43,0-2.38,.7-3.09,3.04-3.09,23.52,0,47.04,0,70.56,0,2.27,0,2.99,.74,3,3.03,0,2.73,0,5.47,0,8.2v1.19Zm-27.05,34.83v-1.42c0-5.98,0-11.96,0-17.94,0-2.4,.73-3.12,3.14-3.12,1.92,0,3.85,0,5.9,0v-1.3c0-2.66,0-5.32,0-7.98,0-2.42,.64-3.07,3.02-3.07,3.83,0,7.66,0,11.48,0h1.23v-10.09H31.2v44.92h47.2Zm40.52,9.03V51.26h-29.14v10.05c1.89,0,3.71,0,5.53,0,2.75,0,3.37,.61,3.37,3.31,0,8.97,0,17.94,0,26.91v1.28h20.24Zm-22.52,0v-29.12h-15.64v29.12h15.64Z"/></g></svg>