<?xml version="1.0" encoding="UTF-8"?><svg id="Layer_2" xmlns="http://www.w3.org/2000/svg" viewBox="0 0 154.96 135.96"><defs><style>.cls-1{fill:#fff;}.cls-2{fill:#58b557;}</style></defs><g id="Layer_1-2"><g><path class="cls-2" d="M113.43,0H41.52c-1.99,0-3.82,1.06-4.81,2.78L.74,65.2c-.99,1.72-.99,3.83,0,5.55l35.97,62.42c.99,1.72,2.83,2.78,4.81,2.78H113.43c1.99,0,3.82-1.06,4.81-2.78l35.97-62.42c.99-1.72,.99-3.83,0-5.55L118.25,2.78c-.99-1.72-2.83-2.78-4.81-2.78Z"/><g><path class="cls-1" d="M103.27,34.36c.02-.23,.03-.45,.05-.67,.07-.91,.55-1.45,1.45-1.45,2.76-.03,5.51-.03,8.27,0,.91,0,1.41,.54,1.41,1.47,.01,5.91,.01,11.82,0,17.74,0,.94-.48,1.44-1.42,1.45-2.81,.03-5.63,.03-8.44,0-.92,0-1.37-.52-1.43-1.46-.01-.22,0-.45,0-.75-1.54,.32-3,.63-4.47,.92-4.07,.81-7.99,.15-11.57-1.75-2.75-1.46-5.52-2.11-8.58-1.88-.93,.07-1.88,.04-2.81,0-2.86-.1-4.89-1.45-6.06-4.08-.07-.15-.14-.3-.24-.5-2.56,.74-5.08,1.51-7.63,2.19-1.86,.5-3.73,1.1-5.62,1.26-3.2,.28-6.07-1.61-7.37-4.51-.5-1.11-.26-1.76,.86-2.25,6.59-2.91,13.18-5.85,19.79-8.72,4.1-1.78,8.34-1.86,12.7-.99,7.01,1.4,14.05,2.65,21.12,3.98Zm-31.27,6.52c-.3,2.22,1.19,4.15,3.35,4.29,1.76,.11,3.52,.1,5.28,.05,2.3-.06,4.43,.44,6.44,1.6,5.24,3.02,10.68,2.74,16.2,.87v-10.52c-.32-.07-.59-.14-.87-.19-7.2-1.35-14.4-2.69-21.59-4.06-3.43-.65-6.82-.52-10.04,.85-6.11,2.61-12.17,5.32-18.25,7.99-.22,.1-.43,.22-.66,.34,1.36,1.77,3.33,2.49,5.51,1.89,3.83-1.05,7.64-2.19,11.45-3.3,.21-.06,.48-.25,.54-.43,.53-1.61,1.69-2.14,3.28-2.12,3.1,.04,6.2,.01,9.29,.01,2.02,0,4.04-.01,6.05,0,.96,0,1.53,.64,1.41,1.51-.1,.79-.67,1.22-1.67,1.22-3.04,0-6.08,0-9.12,0h-6.61Zm39.91,9.23v-15.09h-5.8v15.09h5.8Z"/><path class="cls-1" d="M51.84,101.6c-.02,.29-.02,.54-.05,.79-.1,.78-.52,1.28-1.32,1.29-2.9,.02-5.8,.02-8.69,0-.76,0-1.19-.49-1.26-1.24-.03-.37-.02-.74-.02-1.11,0-5.43,0-10.85,0-16.28,0-1.54,.38-1.92,1.9-1.93,2.42,0,4.83,0,7.25,0,2,0,2.19,.18,2.38,2.22,1.21-.26,2.42-.49,3.61-.77,4.37-1.03,8.59-.42,12.47,1.66,2.7,1.44,5.43,2.04,8.42,1.83,.62-.04,1.25,0,1.87,0,3.86,0,5.59,1.07,7.3,4.58,1.36-.39,2.74-.8,4.12-1.18,2.65-.74,5.27-1.59,7.96-2.18,3.51-.77,6.98,1.11,8.5,4.37,.55,1.19,.32,1.83-.9,2.36-6.57,2.88-13.13,5.8-19.72,8.62-3.9,1.67-7.96,1.84-12.11,1.02-7.04-1.38-14.11-2.67-21.16-4-.16-.03-.33-.02-.54-.04Zm-.01-2.77c.32,.07,.62,.16,.92,.21,6.89,1.3,13.79,2.54,20.66,3.91,4.19,.83,8.21,.6,12.14-1.18,5.63-2.55,11.32-5,16.98-7.49,.24-.11,.48-.23,.74-.35-1.46-1.85-3.43-2.51-5.71-1.87-3.74,1.05-7.47,2.15-11.2,3.25-.25,.07-.53,.31-.63,.55-.6,1.4-1.42,2-2.94,2.01-1.71,.01-3.41,0-5.12,0-3.47,0-6.93,0-10.4,0-.82,0-1.37-.31-1.55-1.14-.2-.99,.43-1.65,1.6-1.65,4.94,0,9.89,0,14.83,0,.33,0,.65-.04,.96-.05,.23-2.39-1.42-4.26-3.75-4.32-1.59-.04-3.19-.07-4.77,0-2.4,.11-4.57-.51-6.69-1.63-3.54-1.87-7.27-2.89-11.32-1.97-1.59,.36-3.2,.67-4.77,1v10.71Zm-8.55,2.16h5.79v-15.05h-5.82c0,4.81,0,9.56,0,14.3,0,.23,.02,.45,.03,.75Z"/><path class="cls-1" d="M83.71,84.73c-8.56,0-15.52-6.95-15.52-15.49,0-8.55,6.96-15.52,15.5-15.53,8.55,0,15.52,6.96,15.52,15.5,0,8.55-6.95,15.51-15.5,15.52Zm0-2.67c7.11-.01,12.83-5.76,12.81-12.87-.02-7.13-5.74-12.81-12.88-12.78-7.06,.02-12.76,5.76-12.77,12.83,0,7.13,5.71,12.84,12.84,12.83Z"/><path class="cls-1" d="M88.95,63.25h-2.86c.52,.65,.84,1.46,.98,2.4h2.44l-.56,1.9h-1.84c-.15,1.43-.72,2.51-1.71,3.24-.99,.73-2.38,1.09-4.15,1.09l5.98,6.97v.15h-2.75l-6.43-7.51v-1.51h3.01c1.01,0,1.83-.23,2.46-.66,.63-.43,1.03-1.02,1.2-1.76h-7.02l.56-1.9h6.44c-.39-1.54-1.58-2.34-3.56-2.4h-3.41l.57-1.9h11.21l-.56,1.9Z"/></g></g></g></svg>