<?xml version="1.0" encoding="UTF-8"?><svg xmlns="http://www.w3.org/2000/svg" viewBox="0 0 155 136"><defs><style>.cls-1{fill:#58b557;}.cls-2{fill:#fff;}.cls-3{isolation:isolate;}.cls-4{mix-blend-mode:multiply;}</style></defs><g class="cls-3"><g id="Layer_2"><g id="Layer_1-2"><g><g class="cls-4"><path class="cls-1" d="M113.4,0H41.5c-2,0-3.8,1.1-4.8,2.8L.7,65.2c-1,1.7-1,3.8,0,5.5l36,62.4c1,1.7,2.8,2.8,4.8,2.8H113.4c2,0,3.8-1.1,4.8-2.8l36-62.4c1-1.7,1-3.8,0-5.5L118.2,2.8c-1-1.7-2.8-2.8-4.8-2.8Z"/></g><g id="Cloud_technology"><path class="cls-2" d="M60.2,52.4h0c-5.1,0-9.3,4.2-9.3,9.3,0,0,0,0,0,0,0,.5,.4,.9,.9,.9h0c.5,0,.9-.4,.9-.9h0c0-4.2,3.3-7.6,7.5-7.6,0,0,0,0,0,0h0c.5,0,.9-.4,.9-.9,0-.5-.4-.9-.9-.9h0Z"/><path class="cls-2" d="M71.1,70.4h12.7c.9,0,1.6,.7,1.6,1.6h0v12.7c0,.9-.7,1.6-1.6,1.6h-12.7c-.9,0-1.6-.7-1.6-1.6h0v-12.7c0-.9,.7-1.6,1.6-1.6h0Z"/><path class="cls-2" d="M94.8,75.5c7.6,0,13.9-6.1,13.9-13.7,0-7.6-6.1-13.8-13.7-13.9,0,0,0,0-.1,0h0s0,0,0,0c-1.6,0-3-.9-3.7-2.4-3.5-7.6-12.5-10.9-20.1-7.4-3.2,1.5-5.9,4.1-7.4,7.4-.7,1.4-2.1,2.4-3.7,2.4h0c-7.6,0-13.8,6.2-13.8,13.8,0,0,0,0,0,.1,0,7.5,6.3,13.7,13.9,13.7h5.3v2.4h-8.7c-.5-1.3-2-2-3.3-1.6-1.3,.5-2,2-1.6,3.3,.5,1.3,2,2,3.3,1.6,.7-.3,1.3-.8,1.6-1.6h8.7v1.8h-5.4c-1.2,0-2.1,1-2.1,2.1v10.3c-1.3,.5-2,2-1.6,3.3,.5,1.3,2,2,3.3,1.6s2-2,1.6-3.3c-.3-.7-.8-1.3-1.6-1.6v-10.3c0-.2,.2-.4,.4-.4h5.4v2.9c0,2.3,1.9,4.2,4.2,4.2h2.8s0,0,0,0v3.7c-1.3,.5-2,2-1.6,3.3,.5,1.3,2,2,3.3,1.6,1.3-.5,2-2,1.6-3.3-.3-.7-.8-1.3-1.6-1.6v-3.7s0,0,0,0h6.6s0,0,0,0v3.7c-1.3,.5-2,2-1.6,3.3s2,2,3.3,1.6,2-2,1.6-3.3c-.3-.7-.8-1.3-1.6-1.6v-3.7s0,0,0,0h2.6c2.3,0,4.2-1.9,4.2-4.2v-2.9h4.6c.2,0,.4,.2,.4,.4v10.3c-1.3,.5-2,2-1.6,3.3,.5,1.3,2,2,3.3,1.6s2-2,1.6-3.3c-.3-.7-.8-1.3-1.6-1.6v-10.3c0-1.2-1-2.1-2.1-2.1h-4.6v-1.8h7.9c.5,1.3,2,2,3.3,1.6,1.3-.5,2-2,1.6-3.3s-2-2-3.3-1.6c-.7,.3-1.3,.8-1.6,1.6h-7.9v-2.4h5.4Zm-7.2,10.6c0,1.4-1.1,2.5-2.5,2.5h-15.5c-1.4,0-2.5-1.1-2.5-2.5v-15.5c0-1.4,1.1-2.5,2.5-2.5h15.5c1.4,0,2.5,1.1,2.5,2.5v15.5Zm1.7-16.4c-.4-2-2.1-3.3-4.1-3.3h-2.6v-6.3c1.3-.5,2-2,1.6-3.3-.5-1.3-2-2-3.3-1.6-1.3,.5-2,2-1.6,3.3,.3,.7,.8,1.3,1.6,1.6v6.3h-6.6v-6.3c1.3-.5,2-2,1.6-3.3s-2-2-3.3-1.6-2,2-1.6,3.3c.3,.7,.8,1.3,1.6,1.6v6.3h-2.8c-2,0-3.7,1.4-4.1,3.3,0,0,0,0,0,0h-1.8c-.4,0-.7-.3-.7-.7v-4.1c1.3-.5,2-2,1.6-3.3-.5-1.3-2-2-3.3-1.6-1.3,.5-2,2-1.6,3.3,.3,.7,.8,1.3,1.6,1.6v4.1c0,1.4,1.1,2.4,2.4,2.4h1.7v2.3h-5.3c-6.7,0-12.1-5.4-12.2-11.9,0-6.6,5.3-12.1,11.9-12.1,0,0,0,0,0,0h0s0,0,0,0c2.3,0,4.3-1.3,5.3-3.4,3.1-6.7,11.1-9.6,17.8-6.5,2.9,1.3,5.2,3.6,6.5,6.5,1,2.1,3,3.4,5.3,3.4h0c6.6,0,12,5.4,12,12,0,0,0,0,0,0,0,6.6-5.5,11.9-12.2,11.9h-5.4v-2.3h.9c1.4,0,2.4-1.1,2.4-2.4v-4.1c1.3-.5,2-2,1.6-3.3-.5-1.3-2-2-3.3-1.6-1.3,.5-2,2-1.6,3.3,.3,.7,.8,1.3,1.6,1.6v4.1c0,.4-.3,.7-.7,.7h-1Z"/></g></g></g></g></g></svg>