<?xml version="1.0" encoding="UTF-8"?><svg id="Layer_2" xmlns="http://www.w3.org/2000/svg" viewBox="0 0 156.9 137.65"><defs><style>.cls-1{fill:#fff;}.cls-2{fill:#58b557;}</style></defs><g id="Layer_1-2"><g><path class="cls-2" d="M114.89,0H42.01c-1.99,0-3.82,1.06-4.81,2.78L.74,66.05c-.99,1.72-.99,3.83,0,5.55l36.45,63.27c.99,1.72,2.83,2.78,4.81,2.78H114.89c1.99,0,3.82-1.06,4.81-2.78l36.45-63.27c.99-1.72,.99-3.83,0-5.55L119.71,2.78c-.99-1.72-2.83-2.78-4.81-2.78Z"/><g><path class="cls-1" d="M41.78,105.92v-1.73c0-21.15,0-42.31,.02-63.46,0-.98-.11-1.6-1.18-2.05-1.93-.81-2.86-2.86-2.55-5.01,.29-1.96,1.88-3.51,3.95-3.87,1.97-.34,3.98,.68,4.93,2.51,.19,.38,.35,.77,.54,1.22h1.54c18.79,0,37.59,0,56.38,0,2.03,0,2.13,.1,2.13,2.08,0,1.49,0,2.98,0,4.59,2.06,0,3.98,.04,5.89-.02,.93-.03,1.5,.26,1.92,1.13,1.04,2.21,2.15,4.39,3.28,6.55,.48,.92,.28,1.52-.59,2.02-1.04,.6-2.09,1.2-3.04,1.93-.4,.3-.76,.92-.77,1.41-.07,3.04-.07,6.09-.02,9.14,.02,1.21-.46,1.69-1.67,1.68-3.99-.04-7.98-.04-11.97,0-1.23,.01-1.68-.5-1.66-1.7,.04-3-.01-6.01,.03-9.01,.01-.78-.22-1.27-.91-1.65-1.08-.61-2.12-1.3-3.17-1.96-.65-.41-.82-.92-.46-1.63,1.2-2.37,2.34-4.77,3.61-7.1,.22-.4,.93-.74,1.43-.76,2-.09,4.01-.04,6.08-.04v-4.75h-1.56c-18.36,0-36.73,0-55.09-.01-.93,0-1.47,.15-1.96,1.13-.46,.92-1.44,1.66-2.34,2.24-.57,.37-.88,.59-.88,1.31,.02,21.63,.02,43.25,.02,64.88,0,.25,.03,.5,.05,.82h5.7c-.27-.32-.44-.53-.62-.74-2.41-2.8-3.02-5.95-1.5-9.33,1.52-3.38,4.3-5.06,7.98-5.06,17.03-.03,34.07-.01,51.1,0,1.67,0,3.37-.12,5.01,.1,4.62,.61,7.73,4.47,7.48,9.09-.24,4.4-3.93,7.86-8.56,7.97-2.4,.06-4.81,.01-7.21,.01-12.96,0-25.92,0-38.87,0-8.67,0-17.33,0-26,0-.34,0-.74,.11-1.02-.03-.44-.22-.79-.61-1.18-.93,.38-.33,.75-.9,1.15-.93,1.44-.12,2.9-.04,4.53-.04Zm40.99-.05v.04c9.22,0,18.45,.02,27.67-.01,3.5-.01,6.15-2.49,6.58-6,.38-3.07-1.72-6.19-4.83-7.02-.94-.25-1.95-.28-2.93-.29-17.63-.02-35.26-.01-52.89,0-.56,0-1.12,0-1.67,.06-3.64,.32-6.34,3.26-6.24,6.76,.11,3.68,3.01,6.46,6.77,6.46,9.18,0,18.36,0,27.54,0Zm29.48-56.08h-11.3v12.21h11.3v-12.21Zm4.51-1.36c-1.01-2.01-1.91-3.9-2.91-5.74-.17-.31-.73-.56-1.12-.57-4.12-.04-8.24-.03-12.36,0-.34,0-.85,.14-.98,.38-1.04,1.95-2.01,3.93-3.02,5.96,.9,.53,1.64,.97,2.44,1.44q.27-2.04,2.19-2.04c3.56,0,7.12,0,10.68,0,.68,0,1.5-.11,1.99,.21,.44,.29,.52,1.13,.78,1.8,.73-.45,1.44-.9,2.29-1.43ZM42.74,31.68c-1.59,0-2.87,1.28-2.85,2.85,.02,1.56,1.37,2.86,2.91,2.82,1.52-.04,2.75-1.29,2.76-2.82,.02-1.61-1.22-2.85-2.83-2.85Z"/><path class="cls-1" d="M56.1,85.96c0-4.35,0-8.47,0-12.58,0-1.54,.18-1.73,1.68-1.73,3.95,0,7.89,0,11.84,0,1.52,0,1.7,.18,1.7,1.71,0,3.69,0,7.38,0,11.07v1.46h3.83v-1.42c0-3.69,0-7.38,0-11.07,0-1.56,.17-1.74,1.66-1.74,3.99,0,7.98,.02,11.97-.02,1.15-.01,1.62,.39,1.6,1.58-.05,3.73-.02,7.46-.02,11.2v1.47h3.83v-1.4c0-3.77,.02-7.55-.01-11.33-.01-1.12,.44-1.53,1.53-1.52,4.08,.03,8.15,.03,12.23,0,1.12,0,1.5,.48,1.49,1.56-.04,3.73-.01,7.46-.01,11.2v1.57c.56,0,1.02,0,1.48,0,2.92,0,5.84-.03,8.75,.05,.39,.01,.77,.57,1.16,.87-.37,.32-.71,.72-1.14,.94-.27,.14-.67,.03-1.02,.03-23.64,0-47.27,0-70.91-.01-.82,0-2.11,.38-2.07-.99,.04-1.24,1.27-.86,2.06-.87,2.74-.04,5.47-.01,8.35-.01Zm1.94-.09h11.29v-12.21h-11.29v12.21Zm30.38,0v-12.2h-11.32v12.2h11.32Zm19.05,0v-12.2h-11.32v12.2h11.32Z"/><path class="cls-1" d="M87.52,99.31c-.02,2.59-2.18,4.73-4.77,4.73-2.64,0-4.8-2.22-4.75-4.87,.05-2.61,2.2-4.67,4.83-4.64,2.61,.03,4.71,2.17,4.69,4.78Zm-4.72,2.79c1.59-.02,2.84-1.32,2.8-2.9-.04-1.51-1.32-2.77-2.82-2.78-1.54-.01-2.88,1.32-2.87,2.87,0,1.58,1.3,2.84,2.89,2.81Z"/><path class="cls-1" d="M55.11,94.53c2.61-.01,4.76,2.09,4.8,4.69,.04,2.61-2.18,4.85-4.81,4.82-2.61-.02-4.7-2.14-4.69-4.77,0-2.64,2.07-4.73,4.71-4.74Zm2.85,4.72c0-1.59-1.3-2.87-2.87-2.83-1.5,.03-2.78,1.3-2.81,2.8-.03,1.56,1.26,2.86,2.84,2.87,1.61,0,2.85-1.23,2.84-2.84Z"/><path class="cls-1" d="M115.12,99.27c0,2.63-2.09,4.75-4.7,4.77-2.63,.02-4.85-2.21-4.81-4.83,.04-2.6,2.19-4.7,4.8-4.69,2.63,.01,4.71,2.1,4.71,4.74Zm-4.73,2.83c1.57,0,2.88-1.31,2.85-2.86-.02-1.54-1.39-2.86-2.92-2.82-1.53,.04-2.74,1.28-2.75,2.82-.01,1.61,1.21,2.86,2.82,2.86Z"/><path class="cls-1" d="M73.21,99.3c-.01,2.61-2.14,4.74-4.73,4.75-2.65,0-4.8-2.18-4.75-4.85,.04-2.63,2.16-4.68,4.79-4.66,2.61,.02,4.71,2.15,4.7,4.76Zm-1.91-.06c-.02-1.57-1.35-2.86-2.9-2.82-1.57,.05-2.82,1.38-2.77,2.95,.05,1.53,1.29,2.73,2.84,2.73,1.6,0,2.85-1.27,2.83-2.86Z"/><path class="cls-1" d="M101.79,99.33c-.03,2.61-2.17,4.73-4.77,4.71-2.65-.01-4.79-2.22-4.72-4.89,.07-2.63,2.19-4.66,4.83-4.63,2.61,.04,4.69,2.18,4.66,4.8Zm-4.7,2.77c1.59-.02,2.83-1.31,2.79-2.9-.04-1.52-1.3-2.76-2.82-2.78-1.56-.01-2.86,1.29-2.86,2.86,0,1.58,1.28,2.84,2.88,2.82Z"/></g></g></g></svg>