<?xml version="1.0" encoding="UTF-8"?><svg id="Layer_2" xmlns="http://www.w3.org/2000/svg" xmlns:xlink="http://www.w3.org/1999/xlink" viewBox="0 0 154.63 135.68"><defs><style>.cls-1{fill:url(#linear-gradient);}.cls-2{fill:#fdffff;}</style><linearGradient id="linear-gradient" x1="0" y1="67.84" x2="154.63" y2="67.84" gradientTransform="matrix(1, 0, 0, 1, 0, 0)" gradientUnits="userSpaceOnUse"><stop offset=".06" stop-color="#58b557"/><stop offset=".35" stop-color="#41a04e"/><stop offset=".94" stop-color="#066d39"/><stop offset="1" stop-color="#006837"/></linearGradient></defs><g id="Layer_1-2"><g><path class="cls-1" d="M113.19,0H41.44c-1.99,0-3.82,1.06-4.81,2.78L.74,65.06c-.99,1.72-.99,3.83,0,5.55l35.89,62.28c.99,1.72,2.83,2.78,4.81,2.78H113.19c1.99,0,3.82-1.06,4.81-2.78l35.89-62.28c.99-1.72,.99-3.83,0-5.55L118,2.78c-.99-1.72-2.83-2.78-4.81-2.78Z"/><path class="cls-2" d="M49.54,66.2c.24-3.63,1.01-7.08,2.63-10.27,5.18-10.18,13.51-15.79,24.93-15.86,11.53-.07,19.97,5.49,25.25,15.75,.38,.74,.83,1.08,1.61,1.3,8.64,2.4,14.66,10.72,14.23,19.62-.45,9.29-7.1,16.94-16.15,18.52-1.13,.2-2.28,.32-3.43,.32-15.82,.02-31.65,.02-47.47,.01-8.21,0-14.81-6.67-14.74-14.86,.06-7.07,5.23-13.14,12.21-14.34,.28-.05,.56-.11,.93-.19Zm25.5,26.12c7.8,0,15.6,0,23.39,0,.97,0,1.96-.06,2.92-.23,7.76-1.36,13.46-8.02,13.58-15.81,.12-7.87-5.3-14.66-13.01-16.26-1.05-.22-1.6-.74-2.04-1.71-3.99-8.84-10.82-14.02-20.47-14.89-9.01-.82-16.37,2.66-21.86,9.86-3.16,4.15-4.68,8.92-4.77,14.14-.03,1.4-.51,1.92-1.9,2.02-.23,.02-.46,.03-.69,.05-5.85,.47-10.42,5.33-10.52,11.17-.1,6.42,5.02,11.65,11.45,11.66,7.97,.02,15.94,0,23.91,0Z"/></g></g></svg>