<?xml version="1.0" encoding="UTF-8"?><svg id="Layer_2" xmlns="http://www.w3.org/2000/svg" xmlns:xlink="http://www.w3.org/1999/xlink" viewBox="0 0 149.17 130.94"><defs><style>.cls-1{fill:url(#linear-gradient);}.cls-2{fill:#f7f9f9;}</style><linearGradient id="linear-gradient" x1="0" y1="65.47" x2="149.17" y2="65.47" gradientTransform="matrix(1, 0, 0, 1, 0, 0)" gradientUnits="userSpaceOnUse"><stop offset=".06" stop-color="#58b557"/><stop offset=".35" stop-color="#41a04e"/><stop offset=".94" stop-color="#066d39"/><stop offset="1" stop-color="#006837"/></linearGradient></defs><g id="Layer_1-2"><path class="cls-1" d="M109.1,0H40.08c-1.99,0-3.82,1.06-4.81,2.78L.74,62.69c-.99,1.72-.99,3.83,0,5.55l34.52,59.91c.99,1.72,2.83,2.78,4.81,2.78H109.1c1.99,0,3.82-1.06,4.81-2.78l34.52-59.91c.99-1.72,.99-3.83,0-5.55L113.91,2.78c-.99-1.72-2.83-2.78-4.81-2.78Z"/><g><path class="cls-2" d="M93.33,33.23c-2.29-.62-3.83-1.94-4.29-4.28-.55-2.78,1.16-5.43,3.92-6.15,2.65-.69,5.47,.86,6.35,3.49,.88,2.64-.41,5.55-3.05,6.52-.95,.35-1.15,.8-1.15,1.73,.04,6.87,0,13.74,.04,20.62,0,.77-.23,1.26-.81,1.74-2.79,2.31-5.53,4.68-8.32,7-.53,.44-.73,.89-.73,1.58,.02,13.87,.02,27.74,.02,41.61v1.13c-.25,.03-.4,.07-.54,.07q-1.26,.06-1.26-1.16c0-14.18,0-28.36-.01-42.54,0-.65,.18-1.09,.69-1.51,2.88-2.4,5.74-4.82,8.57-7.27,.31-.27,.6-.75,.6-1.14,.04-7,.03-13.99,.02-20.99,0-.12-.02-.25-.03-.44Zm4.54-5.3c-.01-1.92-1.6-3.51-3.52-3.52-1.95,0-3.59,1.64-3.57,3.58,.02,1.92,1.62,3.51,3.54,3.52,1.96,0,3.57-1.61,3.56-3.58Z"/><path class="cls-2" d="M54.14,43.44c-3.63-1.67-4.96-3.71-4.31-6.51,.59-2.55,2.78-4.24,5.39-4.15,2.57,.08,4.62,1.93,5.06,4.55,.45,2.7-1.04,4.79-4.34,6.06-.01,.25-.04,.52-.04,.8,0,3.44,.01,6.87-.02,10.3,0,.6,.19,.97,.63,1.35,2.9,2.42,5.78,4.86,8.64,7.33,.31,.26,.59,.76,.59,1.15,.03,14.43,.03,28.85,.02,43.28,0,.18-.03,.37-.05,.63h-1.76v-1.1c0-13.86,0-27.73,.01-41.59,0-.72-.19-1.2-.75-1.67-2.72-2.25-5.38-4.57-8.1-6.81-.71-.58-1.02-1.17-1.01-2.12,.06-3.84,.02-7.68,.02-11.49Zm4.4-5.32c-.02-1.95-1.57-3.48-3.53-3.48-1.97,0-3.58,1.62-3.55,3.57,.03,1.93,1.61,3.48,3.55,3.49,1.99,0,3.55-1.58,3.53-3.58Z"/><path class="cls-2" d="M75.53,108.23h-1.77V61.03c-1.75-.46-3.12-1.36-3.91-2.98-.55-1.11-.65-2.28-.41-3.47,.52-2.49,2.8-4.22,5.4-4.15,2.41,.06,4.58,1.92,5.02,4.28,.53,2.86-.89,4.96-4.33,6.36v47.16Zm-.95-48.96c1.98,.02,3.6-1.57,3.6-3.53s-1.58-3.52-3.51-3.56c-1.94-.04-3.6,1.6-3.6,3.56,0,1.93,1.57,3.51,3.5,3.53Z"/><path class="cls-2" d="M55.82,108.25h-1.8v-1.14c0-11.15,0-22.29,.02-33.44,0-.67-.2-1.08-.73-1.47-1.51-1.11-2.99-2.25-4.46-3.42-.4-.32-.68-.35-1.14-.08-2.31,1.33-5.17,.71-6.78-1.4-1.58-2.07-1.42-4.99,.37-6.87,1.81-1.9,4.72-2.21,6.84-.75,2.2,1.52,2.94,4.31,1.77,6.71-.11,.22-.23,.43-.38,.73,1.82,1.38,3.61,2.78,5.45,4.12,.62,.45,.86,.93,.86,1.7-.03,11.4-.02,22.79-.02,34.19v1.12Zm-14.2-44.23c-.02,1.98,1.56,3.61,3.52,3.62,1.9,.01,3.53-1.58,3.57-3.5,.05-1.9-1.54-3.55-3.45-3.6-2-.04-3.62,1.49-3.64,3.47Z"/><path class="cls-2" d="M95.12,108.25h-1.76v-1.02c0-8.4,0-16.79-.02-25.19,0-.66,.17-1.08,.71-1.47,1.86-1.36,3.68-2.78,5.57-4.22-.8-1.44-1.1-2.93-.62-4.51,.89-2.92,4.14-4.5,6.97-3.4,2.8,1.09,4.11,4.3,2.88,7.04-1.27,2.83-4.62,3.98-7.31,2.46-.54-.3-.85-.24-1.3,.11-1.44,1.15-2.89,2.28-4.38,3.37-.56,.41-.78,.85-.77,1.55,.03,8.02,.02,16.04,.02,24.06v1.21Zm12.51-34.89c.02-1.97-1.57-3.6-3.53-3.6-1.91,0-3.52,1.57-3.56,3.49-.04,1.93,1.6,3.6,3.54,3.61,1.89,0,3.53-1.61,3.55-3.5Z"/></g></g></svg>